# xmcd
#
# Track frame offsets:
# 150
# 27113
# 61031
# 91793
# 137832
# 151958
# 185992
# 217722
# 239266
# 268302
#
# Disc length: 4038 seconds
#
#
# Revision: 0
# Processed by: cddbd v1.4PL0 Copyright (c) Steve Scherf et al.
# Submitted via: FreeRIP 2.52 
#
DISCID=830fc40a
DTITLE=Afro Celt Sound System - Seed
DYEAR=1900
DGENRE=Celtic
TTITLE0=Cyberia
TTITLE1=Seed
TTITLE2=Nevermore
TTITLE3=Otherside, The
TTITLE4=Ayub's Song - As You Were
TTITLE5=Rise
TTITLE6=Rise Above It
TTITLE7=Deep Channel
TTITLE8=All Remains
TTITLE9=Green - (Nevermore Instrumental)
EXTD=Great mix of West African and Celtic styles with others mixed in.\nby Messiah of Satan
EXTT0=no
EXTT1=no
EXTT2=no
EXTT3=no
EXTT4=no
EXTT5=no
EXTT6=no
EXTT7=no
EXTT8=no
EXTT9=no
PLAYORDER=
